<mxfile host="app.diagrams.net" modified="2023-04-10T03:28:25.653Z" agent="Mozilla/5.0 (Windows NT 10.0; Win64; x64) AppleWebKit/537.36 (KHTML, like Gecko) Chrome/110.0.0.0 Safari/537.36" version="21.1.5" etag="j56oMsK7XSNP4vHeKP_N" type="github">
  <diagram name="Page-1" id="MvQyW7eyLsZAUHYkzxva">
    <mxGraphModel>
      <root>
        <mxCell id="0" />
        <mxCell id="1" parent="0" />
      </root>
    </mxGraphModel>
  </diagram>
</mxfile>
